# xmcd
#
# Track frame offsets:
#	183
#	9908
#	18098
#	28830
#	40308
#	51605
#	64198
#	79235
#	90435
#	103700
#	116263
#	130110
#	139673
#	151945
#	162970
#	172585
#	180963
#	194320
#	203413
#	216190
#
# Disc length: 3011 seconds
#
# Revision: 1
# Processed by: cddbd v1.5.1PL0 Copyright (c) Steve Scherf et al.
# Submitted via: CDex 1.50Beta5
#
DISCID=f60bc114
DTITLE=Various Artist - Rock'n Roll Vol 3
DYEAR=1900
DGENRE=Rock
TTITLE0=エルビスプレスリー/Dont's Be Cruel
TTITLE1=ジェリーリールイス/火の玉ロック
TTITLE2=チャックベリー/メイベリーン
TTITLE3=ジャンニモランディ/サンライトツイスト
TTITLE4=ジャン&ディーン/サーフシティ
TTITLE5=ビートルズ/マネー
TTITLE6=ローリングストーンズ/ルビーチューズデイ
TTITLE7=デルシャノン/悲しき街角
TTITLE8=ビートルズ/デイジーミスリージー
TTITLE9=モンキーズ/アイムビリーバー
TTITLE10=チャックベリー/スウィートリトルシックスティーン
TTITLE11=エルビスプレスリー/恋の大穴
TTITLE12=ビートルズ/ロールオーバーベートーベン
TTITLE13=ジョニーティロットソン/ポエトリーインモーション
TTITLE14=ビーチボーイズ/ファンファンファン
TTITLE15=エルビスプレスリー/テディベア
TTITLE16=トリニロペス/天使のハンマー
TTITLE17=エルビスプレスリー/恋にしびれて
TTITLE18=ローリングストーンズ/マザーリトルヘルパー
TTITLE19=ジョニー&ハリケーンズ/レッドリバーロック
EXTD=
EXTT0=
EXTT1=
EXTT2=
EXTT3=
EXTT4=
EXTT5=
EXTT6=
EXTT7=
EXTT8=
EXTT9=
EXTT10=
EXTT11=
EXTT12=
EXTT13=
EXTT14=
EXTT15=
EXTT16=
EXTT17=
EXTT18=
EXTT19=
PLAYORDER=
